<?xml version="1.0" encoding="UTF-8" standalone="no"?>
<svg xmlns:ffdec="https://www.free-decompiler.com/flash" xmlns:xlink="http://www.w3.org/1999/xlink" ffdec:objectType="shape" height="29.35px" width="63.8px" xmlns="http://www.w3.org/2000/svg">
  <g transform="matrix(1.0, 0.0, 0.0, 1.0, 22.05, -5.65)">
    <path d="M40.8 16.75 L41.75 16.75 40.9 17.05 40.8 16.75 M-12.7 34.6 L-12.95 35.0 -13.05 34.4 -12.7 34.6" fill="#99cc00" fill-opacity="0.7019608" fill-rule="evenodd" stroke="none"/>
    <path d="M40.8 16.75 L40.9 17.05 32.2 20.15 Q29.1 21.25 27.9 23.65 26.9 25.65 28.35 27.3 L28.55 27.55 24.65 23.4 24.65 34.75 18.75 24.15 18.75 34.65 12.75 25.55 11.9 25.55 9.5 30.7 Q9.8 27.6 8.55 23.85 8.25 23.0 7.4 22.65 5.2 24.1 4.65 27.05 4.15 30.05 4.05 33.15 L4.05 34.5 -1.0 25.4 -1.45 25.4 -2.3 33.25 -4.1 28.6 -4.65 28.6 -6.35 27.45 -7.6 27.45 Q-7.9 28.35 -8.75 28.45 L-12.7 34.6 -13.05 34.4 -12.4 29.35 -18.1 27.6 -22.05 27.65 -17.0 25.6 Q-15.85 24.95 -16.0 23.2 -16.2 21.4 -17.5 19.5 -19.2 16.95 -21.35 15.5 L-13.9 19.6 -13.35 19.6 -14.45 9.7 -9.85 16.85 Q-8.85 16.95 -8.25 16.3 L-7.55 15.35 -4.8 19.75 Q-2.25 19.05 -2.3 15.85 -2.4 13.25 -1.85 10.8 L0.5 17.0 1.9 16.0 2.65 5.65 7.15 15.85 8.1 15.85 9.65 10.45 10.9 15.5 12.55 17.25 13.7 10.8 15.1 15.25 16.2 16.1 16.95 15.5 16.95 9.45 21.55 16.75 23.25 9.05 Q23.9 12.45 26.8 14.9 28.5 16.3 30.8 16.5 L38.85 17.1 40.8 16.75" fill="#ffffff" fill-opacity="0.6509804" fill-rule="evenodd" stroke="none"/>
  </g>
</svg>
