<?xml version="1.0" encoding="UTF-8" standalone="no"?>
<svg xmlns:ffdec="https://www.free-decompiler.com/flash" xmlns:xlink="http://www.w3.org/1999/xlink" ffdec:objectType="shape" height="33.8px" width="64.75px" xmlns="http://www.w3.org/2000/svg">
  <g transform="matrix(1.0, 0.0, 0.0, 1.0, 21.8, -5.55)">
    <path d="M21.95 11.75 Q21.65 14.2 23.75 15.65 25.85 17.05 30.4 12.9 27.3 16.7 29.9 18.3 L42.95 18.3 Q41.25 19.75 38.6 20.15 28.0 21.6 32.6 33.15 L24.7 25.05 23.7 25.05 23.7 36.55 15.35 24.5 15.35 34.85 9.45 26.15 Q8.55 26.15 7.5 27.0 L7.5 37.1 0.1 25.9 -1.4 37.1 -5.35 28.95 Q-9.6 32.55 -9.0 39.35 L-11.5 29.8 -20.6 33.75 -15.4 28.4 -20.65 21.4 -21.8 20.3 -12.2 23.95 -14.2 12.7 -8.3 21.15 -8.3 7.95 -3.1 17.5 -3.1 7.7 3.05 18.3 3.05 6.0 6.0 14.1 Q9.15 15.65 10.85 14.1 13.95 14.25 13.25 5.55 14.3 13.7 20.75 13.3 L21.95 8.0 21.95 11.75" fill="#ffffff" fill-opacity="0.6509804" fill-rule="evenodd" stroke="none"/>
  </g>
</svg>
