<?xml version="1.0" encoding="UTF-8" standalone="no"?>
<svg xmlns:ffdec="https://www.free-decompiler.com/flash" xmlns:xlink="http://www.w3.org/1999/xlink" ffdec:objectType="shape" height="33.25px" width="65.4px" xmlns="http://www.w3.org/2000/svg">
  <g transform="matrix(1.0, 0.0, 0.0, 1.0, 23.7, -2.65)">
    <path d="M-21.75 23.5 Q-22.8 23.7 -23.7 24.2 L-21.8 23.1 -21.75 23.5" fill="#99cc00" fill-opacity="0.7019608" fill-rule="evenodd" stroke="none"/>
    <path d="M-21.8 23.1 L-15.35 20.3 Q-14.35 18.25 -15.35 16.05 L-15.75 15.35 -17.55 10.85 -16.6 10.65 -12.4 17.5 -11.75 17.5 -12.0 13.45 -8.55 20.3 -8.05 20.3 -6.75 14.2 -3.4 19.8 -2.1 12.65 2.55 20.1 4.25 18.25 5.3 5.4 9.5 16.85 11.55 16.85 13.5 10.8 15.3 15.45 18.0 17.8 19.7 17.8 Q22.1 14.45 22.8 10.15 23.35 6.45 23.15 2.65 23.55 8.0 25.85 12.5 L26.4 13.15 27.25 13.95 38.15 6.05 Q30.55 13.15 31.35 17.95 L41.7 21.65 30.9 21.65 30.9 22.45 33.65 32.45 31.35 32.9 26.4 25.55 Q25.65 24.25 24.2 24.1 L23.4 24.0 22.9 24.0 22.3 35.15 Q20.7 29.15 17.15 24.3 16.4 24.1 16.1 24.3 L16.1 24.95 14.4 34.35 Q13.35 27.9 8.5 25.8 7.75 25.5 7.45 26.45 6.6 29.05 6.55 31.9 6.45 33.9 5.75 35.8 L3.3 30.0 -2.35 27.4 -3.75 35.9 Q-3.7 29.3 -8.8 28.45 L-11.8 30.65 -11.7 29.4 Q-11.65 27.05 -12.95 25.25 -16.15 23.25 -19.75 23.25 L-21.75 23.5 -21.8 23.1" fill="#ffffff" fill-opacity="0.6509804" fill-rule="evenodd" stroke="none"/>
  </g>
</svg>
