<?xml version="1.0" encoding="UTF-8" standalone="no"?>
<svg xmlns:ffdec="https://www.free-decompiler.com/flash" xmlns:xlink="http://www.w3.org/1999/xlink" ffdec:objectType="shape" height="32.3px" width="61.45px" xmlns="http://www.w3.org/2000/svg">
  <g transform="matrix(1.0, 0.0, 0.0, 1.0, 22.55, -5.45)">
    <path d="M30.75 9.4 L31.3 7.45 31.15 9.4 30.75 9.4 M-14.8 11.15 L-14.8 10.6 -14.55 11.0 -14.8 11.15" fill="#99cc00" fill-opacity="0.7019608" fill-rule="evenodd" stroke="none"/>
    <path d="M30.75 9.4 L31.15 9.4 30.5 18.0 31.0 18.0 38.9 16.3 Q36.8 18.75 35.0 22.15 33.7 24.5 33.5 27.3 33.25 30.15 33.8 32.7 L32.7 32.9 26.3 24.65 25.8 24.65 24.9 34.4 23.15 34.75 18.75 25.25 17.2 26.55 16.55 36.05 15.8 36.2 9.3 24.1 9.3 24.85 7.95 37.7 7.75 37.75 4.35 28.95 2.7 28.95 1.5 36.05 -0.6 28.1 Q-1.75 26.2 -3.1 27.1 -5.3 28.5 -7.55 29.4 L-11.7 37.2 -9.45 31.0 Q-9.2 30.4 -9.1 29.65 -8.75 27.25 -9.4 25.1 L-16.05 24.6 Q-18.65 24.5 -20.8 26.2 -21.75 26.9 -22.45 27.8 L-22.55 27.1 -21.75 25.95 -19.5 24.25 -15.9 22.95 Q-14.45 22.05 -13.15 20.85 -11.9 19.65 -12.35 17.7 L-12.6 17.7 -14.8 11.15 -14.55 11.0 -8.75 20.55 -7.0 15.55 -4.3 21.4 -4.3 8.5 0.4 19.15 1.75 14.0 3.85 18.1 Q5.2 16.2 5.05 13.7 L4.6 11.0 8.05 19.15 8.05 5.45 Q8.35 13.4 13.25 18.55 L13.8 8.4 16.7 16.0 17.75 7.0 21.85 16.3 24.35 7.45 24.95 14.85 24.95 15.25 25.45 15.25 Q29.45 14.0 30.75 9.4" fill="#ffffff" fill-opacity="0.6509804" fill-rule="evenodd" stroke="none"/>
  </g>
</svg>
