<svg version="1.2" xmlns="http://www.w3.org/2000/svg" viewBox="0 0 377 372" width="377" height="372">
	<title>blob</title>
	<style>
		.s0 { fill: #af08eb } 
	</style>
	<path id="object-0" class="s0" d="m180.4 0.8c17.7-0.1 35.5-0.1 53.9 0.2 15.5 2.5 30.4 4 45 6.7 21.1 4.1 41.1 11.1 59.3 22.9 14.8 9.7 27 21.5 33 38.7 2 5.6 4 13.2 4.7 24.6 0.6 10.3 0.7 13.4-0.3 24.5-0.8 5.3-0.6 10.1-1.8 14.5-5 19.4-9.8 39-15.7 58.2-6.4 20.6-13.9 40.9-20.9 61.3-10 28.9-21.2 57.2-41.1 81.1-13.1 15.7-29.6 26.1-48.9 32-8.8 2.7-18 4-27.1 5.9-12 0.1-24.1 0.1-36.9-0.2-2.8-0.5-5.1-0.2-7.1-0.7-14.1-3.6-28.5-6.4-42.2-11.2-25.6-8.9-48-23.5-67.7-42.2-15-14.1-27.3-30.2-37.6-48.2-11.2-19.6-19.3-40.4-23.5-62.7-1.5-7.8-2.6-15.7-3.9-23.6-1.3-13.7-1-26.5 0.3-39.8 1.4-7.3 2.2-14 3.6-20.6 5.5-27.7 17.8-51.7 38.9-71.1 12.9-12 27.4-21.2 43.5-28.3 25.2-11.1 51.6-17.5 79-20.2 4.5-0.5 9-1.2 13.5-1.8z"/>
</svg>