<svg version="1.2" xmlns="http://www.w3.org/2000/svg" viewBox="0.68 0.08 24.73 24.35">
	<title>bottom_right</title>
	<style>
		.s0 { fill: #000000 } 
		.s1 { fill: #d85101 } 
		.s2 { fill: #ff9900 } 
		.s3 { fill: #ffcc33 } 
	</style>
	<g>
		<g id="Layer0_0_FILL">
			<path class="s0" d="m23.8 0.1l-0.1 2.6v0.9q0.1 6.1-2.7 12-2.5 4.9-7.8 6.3l-7.2 0.9-5.3-0.1v1.7h8q7.7-0.4 11.8-5.2l1.9-2.8 0.1-0.1q2.6-4.8 2.8-12.4l0.1-3.8zm-6.3 3l0.1-3h-1.6v0.2l-0.4 3q-2.4 10-12.4 10.9l-2.5 0.1v1.4l3.7-0.1q10.3-1 12.7-11.2l0.4-1.2v-0.1z"/>
			<path class="s1" d="m23.8 3.6h-0.1q-0.4 5.2-2.7 10-2.5 4.9-7.8 6.3l-7.2 0.9-5.3-0.1v2l5.3 0.1 7.2-0.9q5.3-1.4 7.8-6.3 2.8-5.8 2.7-12z"/>
			<path class="s2" d="m17.5 3.2l-0.4 2.8q-2.4 10.1-12.7 11.1l-3.7 0.2v3.4l5.4 0.1 7.1-0.9q5.3-1.4 7.8-6.3 2.3-4.8 2.7-10v-0.8-2.7h-6.1l-0.1 3v0.1z"/>
			<path class="s3" d="m17.1 6l0.4-2.8-0.4 1.2q-2.4 10.2-12.7 11.2l-3.7 0.1v1.6l3.7-0.2q10.3-0.9 12.7-11.1z"/>
		</g>
	</g>
</svg>