<svg version="1.2" xmlns="http://www.w3.org/2000/svg" viewBox="0.68 -0.13 24.42 28.37">
	<title>bottom_left</title>
	<style>
		.s0 { fill: #ffcc33 } 
		.s1 { fill: #d85101 } 
		.s2 { fill: #ff9900 } 
		.s3 { fill: #000000 } 
	</style>
	<g>
		<g id="Layer0_0_FILL">
			<path class="s0" d="m9.1 8h-0.2q0.4 3.8 2.4 6.6 2.5 3.8 8 5.6l3.4 1.1h2.3v-1.7h-2.3l-3.4-1q-5.5-1.8-8-5.5-1.6-2.2-2.2-5.1z"/>
			<path class="s1" d="m2.8 6.5q0.1 4.6 1.5 8.7 3.5 11 15.5 11.3l5.2 0.1v-2l-5.2-0.2q-11.9-0.2-15.6-11.2-0.9-3.1-1.4-6.7z"/>
			<path class="s2" d="m2.8 6.5q0.5 3.6 1.5 6.7 3.5 11 15.5 11.3l5.2 0.1v-3.4h-2.3l-3.4-1q-5.5-1.8-8.1-5.6-1.9-2.8-2.3-6.6h0.2l-0.4-8.1-6.2 0.1z"/>
			<path class="s3" d="m2.6 0l-1.9-0.1 0.4 7.4q0.1 7.9 2.7 12.8l1.3 1.9 0.5 0.7 0.1 0.1 1.8 1.7q1.1 1 2.6 1.7 4 1.9 8.9 1.9l6 0.1v-1.6l-5.2-0.1q-11.9-0.3-15.6-11.3-1.3-4.1-1.5-8.7zm7.7-0.1h-1.5l0.4 8.1q0.6 2.9 2.1 5.1 2.6 3.7 8.1 5.5l3.4 1h2.3v-1.3h-1.6l-2.9-1q-5.2-1.7-7.9-5.5-1.9-2.8-2.2-6.5z"/>
		</g>
	</g>
</svg>