<svg version="1.2" xmlns="http://www.w3.org/2000/svg" viewBox="0.2 -0.03 73.52 52.03">
	<title>bubble</title>
	<style>
		.s0 { fill: #ff9900 } 
		.s1 { fill: #000000 } 
		.s2 { fill: #ffcc33 } 
	</style>
	<g>
		<g id="Layer0_0_FILL">
			<path class="s0" d="m10.9 3.4q-1.5 0-2.7 1.2-1.4 1.3-2 3.2l-4.2 18.4v21.8q5.2-18.1 13.8-20l53.2-1.2q1.1 0 1.9-0.7v-0.8l-3.1-18.6q-0.1-1.3-1.3-2.3-1.1-1-2.5-1zm-1 3.8q1-0.8 2.3-0.8l48.4-0.1q1.3 0 2.3 0.8l0.5 0.4 0.5 0.7 0.2 0.6 2.1 14v0.1q0 0.8-0.7 1.5-0.8 0.7-2.1 0.7l-54.6 1.1h-0.4-0.1l-0.7-0.3-0.6-0.5q-0.6-0.6-0.6-1.4v-0.2-0.3l2.5-14.2q0.2-1.5 1-2.1z"/>
			<path class="s1" d="m4.8 1.5q-1.5 1.4-1.7 3.6l-2.8 20.9-0.1 26h1.8v-4-21.8l2.8-20.8q0.2-1.6 1.3-2.7 1.2-1.2 2.7-1.1l56.2-0.1q1.4 0 2.5 1.1 1.2 0.9 1.4 2.3l2.8 16.7h1.6l-2.8-17q-0.2-1.9-1.7-3.2-1.5-1.3-3.3-1.3l-57.2-0.1q-2-0.1-3.5 1.5zm7.4 5q-1.3 0-2.3 0.8-0.8 0.6-1 2.1l-2.5 14.2v0.3 0.2q0 0.8 0.6 1.4l0.7 0.5 0.6 0.3h0.1 0.4l54.6-1.1q1.3 0 2.1-0.7 0.7-0.7 0.7-1.5v-0.1l-2.1-14-0.2-0.6-0.5-0.7-0.4-0.4q-1.1-0.8-2.3-0.8z"/>
			<path class="s2" d="m8.2 4.6q1.3-1.2 2.7-1.2h53.1q1.4 0 2.5 1 1.2 1 1.3 2.4l3.2 18.4v0.3l2.7-0.1-0.4-3.7v-0.1h-1.6l-2.8-16.7q-0.2-1.4-1.4-2.3-1.1-1.1-2.5-1.1l-56.2 0.1q-1.5-0.1-2.7 1.1-1.1 1.1-1.3 2.7l-2.8 20.9 4.2-18.5q0.6-1.9 2-3.2z"/>
		</g>
	</g>
</svg>