<svg version="1.2" xmlns="http://www.w3.org/2000/svg" viewBox="0 0.68 24.33 26.65">
	<title>top_right</title>
	<style>
		.s0 { fill: #000000 } 
		.s1 { fill: #ff9900 } 
		.s2 { fill: #ffcc33 } 
	</style>
	<g>
		<g id="Layer0_0_FILL">
			<path class="s0" d="m0.1 12h1.1l1 0.2 2.5 0.7q5.7 1.9 8.3 6l1.2 2.6q0.8 2.6 0.5 5.6l1.8 0.2v-0.7q0.3-6.7-3.4-10.7-2.6-2.9-7.2-4.5l-3.4-0.8-2.5-0.1zm15.6-9.5l-2.5-0.8-7.1-0.9-6-0.1v1.4l9.3 0.6 5.3 1.4q2.3 0.7 4 3.5l2.5 4.4 0.5 1.4q0.7 2.6 0.7 5.2l0.2 2v6.6h1.5l0.2-10.4q0-10.9-8.7-14.3z"/>
			<path class="s1" d="m0.1 6.2l-0.1 4.3 2.5 0.1 3.4 0.8q4.6 1.6 7.2 4.5 3.7 4 3.5 10.7v0.7h6v-6.7q-1.1-9.4-9.5-12.5l-3-1q-1.9-0.6-4.4-0.8z"/>
			<path class="s2" d="m21.6 13.4l-0.5-1.4-2.4-4.4q-1.7-2.8-4.1-3.5l-5.3-1.4-9.3-0.5v4l5.6 0.1q2.6 0.2 4.5 0.8l3 1q8.4 3.1 9.4 12.5l-0.1-2q-0.1-2.6-0.8-5.2z"/>
		</g>
	</g>
</svg>