<svg version="1.2" xmlns="http://www.w3.org/2000/svg" viewBox="0.2 0.47 23.72 27.05">
	<title>top_left</title>
	<style>
		.s0 { fill: #000000 } 
		.s1 { fill: #ff9900 } 
		.s2 { fill: #ffcc33 } 
	</style>
	<g>
		<g id="Layer0_0_FILL">
			<path class="s0" d="m23.9 11.9v-1.5q-12.5-0.2-15.3 11.3-0.3 1.4-0.3 2.9l-0.1 2.9h1.4l0.4-4.6 0.7-2.1q2.6-7.2 10.1-8.6zm-9.7-8.9l5.1-0.9 4.6 0.1v-1.6l-5.4-0.1q-4.3 0-7.5 1.2l-1.3 0.6q-7.9 3.7-9.4 13.9l-0.1 11.3h1.7v-1.7-0.1l-0.2-1.9q-0.5-10.4 6.7-17.7 2.5-2.6 5.8-3.1z"/>
			<path class="s1" d="m23.9 10.4v-4.3h-4.6q-14.5 0.6-16.8 14.7l-0.6 5v1.7h6.3l0.1-2.9q0-1.5 0.3-2.9 2.8-11.5 15.3-11.3z"/>
			<path class="s2" d="m19.3 2.1l-5.1 0.9q-3.3 0.5-5.8 3.1-7.2 7.3-6.7 17.6l0.1 1.9 0.1 0.1 0.6-4.9q2.3-14.1 16.8-14.8l4.5 0.1v-4z"/>
		</g>
	</g>
</svg>