<?xml version="1.0" encoding="utf-8"?>
<svg xmlns="http://www.w3.org/2000/svg" viewBox="45.7336 50.7475 376.0124 370.7341" width="376.012px" height="370.734px" preserveAspectRatio="none"><path fill="#52B905" opacity="1.000000" stroke="none" d="M 225.396 50.778 C 243.125 50.733 260.854 50.688 279.308 51.034 C 294.808 53.486 309.694 54.959 324.331 57.748 C 345.385 61.759 365.423 68.848 383.572 80.632 C 398.402 90.261 410.635 102.145 416.616 119.253 C 418.59 124.899 420.613 132.534 421.296 143.883 C 421.863 154.241 422.01 157.34 421.048 168.415 C 420.214 173.721 420.362 178.461 419.231 182.872 C 414.239 202.336 409.429 221.876 403.503 241.063 C 397.132 261.694 389.608 281.97 382.55 302.388 C 372.557 331.296 361.43 359.611 341.479 383.505 C 328.407 399.16 311.877 409.551 292.604 415.469 C 283.794 418.175 274.56 419.498 265.518 421.448 C 253.46 421.496 241.401 421.544 228.63 421.2 C 225.758 420.716 223.506 420.992 221.455 420.473 C 207.371 416.915 193.01 414.104 179.343 409.323 C 153.727 400.363 131.254 385.805 111.553 367.146 C 96.623 353.005 84.258 336.859 74.037 318.949 C 62.795 299.25 54.744 278.457 50.494 256.207 C 49 248.383 47.898 240.485 46.616 232.62 C 45.258 218.94 45.567 206.095 46.865 192.828 C 48.307 185.481 49.125 178.808 50.45 172.237 C 56.042 144.512 68.344 120.512 89.354 101.087 C 102.307 89.111 116.841 79.879 132.9 72.793 C 158.13 61.661 184.542 55.259 211.927 52.583 C 216.433 52.143 220.907 51.388 225.396 50.778 Z" id="object-0" transform="matrix(1, 0, 0, 1, 3.552713678800501e-15, 7.105427357601002e-15)"/></svg>